<svg width="85" height="85" viewBox="0 0 85 85" fill="none" xmlns="http://www.w3.org/2000/svg">
<g id="Capa_1">
<path id="Vector" d="M34.7985 11.529C34.7985 11.3482 34.7985 11.2087 34.7985 11.0692C34.8089 9.88079 34.7724 8.69758 34.835 7.51436C34.9185 5.91262 36.228 4.49173 37.8141 4.12488C38.1741 4.04221 38.5498 4.02154 38.9202 4.02154C41.6645 4.01121 44.4036 4.06287 47.148 4.00087C49.2819 3.95437 51.2905 5.77312 51.2018 8.02071C51.1601 9.03342 51.1966 10.0513 51.1966 11.064C51.1966 11.2035 51.1966 11.3482 51.1966 11.529C51.3688 11.529 51.4992 11.529 51.6297 11.529C54.6401 11.529 57.6453 11.5032 60.6557 11.5342C63.2957 11.56 65.1844 12.8208 66.3739 15.1304C66.8226 15.9984 67 16.9388 67 17.9153C67 24.8079 67 31.7006 67 38.5932C67 42.2979 66.9791 45.9974 66.9791 49.702C66.9791 55.5561 66.9948 61.405 67 67.2591C67 70.7364 67 74.2138 67 77.6911C66.9948 80.3314 65.3044 82.672 62.8209 83.6072C61.7253 84.0205 60.6035 83.9844 59.4766 83.9844C50.6905 83.9844 41.9045 83.9844 33.1185 83.9844C30.5098 83.9844 27.9011 84.0257 25.2925 83.974C22.642 83.9223 20.7586 82.6151 19.6003 80.2797C19.1621 79.4168 19.0003 78.4868 19.0003 77.5257C19.0003 68.4837 19.0003 59.4416 19.0003 50.3996C19.0003 40.567 19.0003 30.7344 19.0003 20.9018C19.0003 19.9769 19.0055 19.0572 19.0003 18.1323C18.9795 15.6935 19.976 13.7766 22.042 12.4487C23.0177 11.8235 24.1133 11.5187 25.2872 11.5239C28.3081 11.5342 31.3289 11.5239 34.355 11.5239C34.4854 11.5239 34.6159 11.5239 34.7985 11.5239V11.529ZM21.5516 47.7231C21.5516 53.7942 21.5516 59.8705 21.5516 65.9416C21.5516 69.8426 21.5516 73.7436 21.5568 77.6446C21.5568 79.7423 23.1899 81.4422 25.3029 81.4681C28.6681 81.5094 32.0333 81.4887 35.3985 81.4887C40.8923 81.4887 46.3914 81.4887 51.8853 81.4887C54.7862 81.4887 57.687 81.4939 60.5879 81.4836C62.8313 81.4732 64.4644 79.6545 64.4591 77.5516C64.4539 73.3354 64.4591 69.114 64.4591 64.8979C64.4591 55.3443 64.4591 45.7855 64.4591 36.2319C64.4591 30.1402 64.4644 24.0536 64.4487 17.9618C64.4487 17.4503 64.36 16.8974 64.1565 16.4272C63.4418 14.7583 62.1113 13.9988 60.2905 13.9988C53.821 14.0091 47.3567 13.9988 40.8871 13.9988C35.8576 13.9988 30.8229 13.9988 25.7933 13.9988C25.1203 13.9988 24.4733 14.0711 23.8472 14.3295C22.5064 14.8875 21.5516 16.3239 21.5464 17.8326C21.5412 19.6772 21.5464 21.5218 21.5464 23.3664C21.5464 31.4836 21.5464 39.6008 21.5464 47.7231H21.5516ZM37.3132 11.5135H48.6297C48.6453 11.4309 48.6662 11.3844 48.6662 11.3327C48.6662 10.1753 48.6766 9.01792 48.6662 7.86054C48.661 7.32318 48.2749 6.81166 47.7532 6.64632C47.4923 6.56365 47.2106 6.50165 46.9393 6.50165C44.3201 6.49131 41.6958 6.49131 39.0767 6.49648C38.1011 6.49648 37.5324 6.90467 37.355 7.74687C37.308 7.96388 37.3237 8.19122 37.3237 8.4134C37.3237 9.43644 37.3237 10.4595 37.3237 11.5135H37.3132Z" fill="black"/>
<path id="Vector_2" d="M42.8137 51.2636H31C35.7663 42.7966 40.4918 34.3957 45.2173 26C45.2479 26.0102 45.2785 26.0204 45.3092 26.0255C44.5998 32.1657 43.8956 38.3059 43.1863 44.4818H55C50.2337 53.0354 45.5031 61.5177 40.7725 70L40.6857 69.9745C41.3951 63.7477 42.1044 57.526 42.8137 51.2585V51.2636Z" fill="black"/>
</g>
</svg>
