<svg width="76" height="85" viewBox="0 0 76 85" fill="none" xmlns="http://www.w3.org/2000/svg">
<g id="Capa_1">
<g id="Group 180">
<path id="Vector" d="M38.3451 64.9867C36.0549 64.9867 33.7696 65.0108 31.4794 64.9819C28.4371 64.9433 26.306 63.1739 25.631 60.2039C25.2357 58.4634 24.8548 56.7228 24.416 54.9968C23.1528 50.0163 20.8675 45.5613 17.8879 41.357C12.2227 33.3631 11.5718 24.8003 16.1136 16.1073C20.7952 7.15396 30.9298 2.03362 41.0354 3.15219C51.3436 4.29004 59.8775 11.2039 62.5871 20.7359C64.5735 27.7317 63.7684 34.4865 59.5062 40.3831C55.167 46.3906 52.4815 52.938 51.1507 60.1557C50.5915 63.1932 48.2868 64.9771 45.2156 64.9964C42.9254 65.0108 40.6401 64.9964 38.3499 64.9964L38.3451 64.9867ZM38.3981 61.0476C40.4135 61.0476 42.424 61.0476 44.4393 61.0476C46.662 61.0476 46.9947 60.7391 47.4383 58.5646C48.8702 51.5495 51.117 44.8767 55.6395 39.1633C56.0059 38.7004 56.3289 38.1942 56.6375 37.6879C59.4484 33.0449 60.3211 28.0548 59.0434 22.785C56.57 12.5877 46.8018 5.992 35.9778 7.14432C20.3516 8.79806 11.3597 26.1841 21.3834 39.5201C24.416 43.5556 26.6146 47.9913 27.9019 52.8705C28.4516 54.9486 28.9578 57.0362 29.4351 59.1287C29.7292 60.4305 30.3898 61.1055 31.8073 61.0621C34.001 60.9994 36.1996 61.0476 38.3981 61.0476Z" fill="#021731"/>
<path id="Vector_2" d="M38.3309 70.3533C35.9539 70.3533 33.5722 70.3581 31.1952 70.3533C29.5077 70.3484 28.6399 69.659 28.6495 68.362C28.664 67.1181 29.5077 66.419 31.1036 66.4142C35.9539 66.3997 40.8043 66.3997 45.6498 66.4142C47.2216 66.4142 48.1232 67.147 48.1473 68.3427C48.1714 69.6156 47.2601 70.3436 45.6016 70.3484C43.1764 70.3581 40.7512 70.3484 38.3261 70.3484L38.3309 70.3533Z" fill="#021731"/>
<path id="Vector_3" d="M38.3409 75.3959C36.2388 75.3959 34.1367 75.4055 32.0393 75.3959C30.6893 75.3862 29.9083 74.7354 29.8649 73.6505C29.8215 72.5223 30.6604 71.7798 32.0586 71.775C36.2581 71.7605 40.4623 71.7605 44.6666 71.775C46.0937 71.775 46.9086 72.4741 46.8989 73.6071C46.8893 74.7498 46.0986 75.3911 44.6425 75.3959C42.5404 75.4055 40.4382 75.3959 38.3409 75.3959Z" fill="#021731"/>
<path id="Vector_4" d="M44.8346 76.9102C43.2483 79.3546 41.3198 80.9409 38.5185 80.9987C35.5823 81.0566 33.5862 79.4125 31.9229 76.9102H44.8346Z" fill="#021731"/>
<path id="Vector_5" d="M56.6949 27.9149C56.6081 28.5465 56.502 29.6844 56.2754 30.803C56.0633 31.8733 55.3015 32.3796 54.2504 32.1337C53.2669 31.9071 52.8136 31.1405 53.0017 30.1521C53.831 25.7935 52.8136 21.9171 50.0799 18.4505C49.4049 17.5923 49.4676 16.7052 50.3258 16.035C51.1937 15.3552 52.0663 15.577 52.7365 16.4014C55.3497 19.6028 56.6129 23.296 56.6949 27.9198V27.9149Z" fill="#021731"/>
<path id="Vector_6" d="M44.5358 10.4517C46.1799 11.4208 47.718 12.197 49.0776 13.2191C49.4006 13.4602 49.3669 14.709 49.039 15.1284C48.7015 15.5575 47.6938 15.8275 47.1587 15.6443C45.9244 15.2249 44.7142 14.5981 43.668 13.8218C43.2244 13.494 42.9592 12.5393 43.0701 11.9608C43.1665 11.4497 43.909 11.064 44.5358 10.4517Z" fill="#021731"/>
</g>
</g>
</svg>
