<svg width="76" height="85" viewBox="0 0 76 85" fill="none" xmlns="http://www.w3.org/2000/svg">
<g id="Capa_1">
<path id="Vector" d="M1.00539 40.9036C3.37673 38.5422 5.79657 36.4341 8.85776 35.2561C12.0052 34.0452 14.9532 34.4635 17.7126 36.401C20.1108 38.0909 21.954 40.3312 23.5924 42.7421C25.4679 45.4998 27.2464 48.3235 29.068 51.1198C29.2459 51.395 29.4399 51.6592 29.6824 52.0115C30.7765 50.3326 31.8112 48.7198 32.873 47.1291C42.8703 32.1682 54.9534 19.3044 69.6772 9.11033C70.3994 8.60943 71.1324 8.11954 71.8653 7.62965C73.1157 6.79849 73.9349 6.79298 74.6031 7.59662C75.2445 8.36724 75.1151 9.18188 74.1666 10.2828C67.764 17.7137 61.7656 25.4638 56.1714 33.5498C48.1573 45.1475 41.0756 57.3122 34.9317 70.0438C34.4359 71.0676 33.7892 71.563 32.7113 71.7997C29.8549 72.4272 27.0201 73.1648 24.1745 73.8583C22.6546 74.2271 22.0834 73.9189 21.5552 72.4217C19.1084 65.4752 16.1874 58.7653 12.0537 52.6665C9.10028 48.3015 5.59717 44.4595 1.43115 41.2724C1.31259 41.1788 1.2048 41.0743 1 40.9036H1.00539Z" fill="#021731"/>
</g>
</svg>
