<svg width="85" height="85" viewBox="0 0 85 85" fill="none" xmlns="http://www.w3.org/2000/svg">
<g id="Frame 12" clip-path="url(#clip0_358_1000)">
<path id="Vector" d="M43.6337 78.6636C59.7226 78.7026 74.1402 67.8533 78.8309 52.0782C80.5524 46.283 80.8532 40.3987 79.7279 34.4475C79.3435 32.4192 79.9507 30.7977 81.6443 29.5996C82.4576 29.0257 82.8587 29.1594 83.1484 30.129C84.8476 35.7849 85.4214 41.5466 84.686 47.4198C83.2431 58.9656 78.0009 68.4384 68.9648 75.7437C62.7142 80.7978 55.5165 83.7065 47.5278 84.6872C27.0545 87.2059 6.99906 74.3116 1.41697 53.3097C-4.84479 29.7055 10.2804 5.52738 34.2967 0.835518C44.4247 -1.14264 54.0235 0.406453 63.0819 5.32678C64.9593 6.34651 65.2322 7.48882 64.0011 9.23295C62.3354 11.6012 60.2407 13.3286 57.1655 13.2506C56.224 13.2283 55.2324 12.9887 54.3689 12.6209C34.787 4.23461 12.7539 16.2707 8.82633 37.2281C5.35563 55.7448 17.1995 73.5538 35.5892 77.6884C36.748 77.9503 37.9179 78.1788 39.0933 78.3181C40.6031 78.4908 42.1239 78.5521 43.6392 78.6636H43.6337Z" fill="#021731"/>
<path id="Vector_2" d="M39.5087 56.6668C38.0249 56.6 36.613 55.8595 35.6441 54.3617C31.1649 47.4407 26.6968 40.5085 22.2287 33.582C21.4647 32.396 21.5699 31.3047 22.5166 30.5585C23.4247 29.8403 24.46 29.985 25.4566 30.9594C29.9524 35.347 34.4427 39.7346 38.9384 44.1222C39.7413 44.9072 40.1953 44.9239 41.0535 44.1667C53.2176 33.4762 65.3817 22.7912 77.5402 12.0951C78.2268 11.4938 78.941 11.1151 79.8601 11.4715C81.3273 12.0394 81.6817 13.7043 80.5688 14.9181C78.2932 17.3958 76.001 19.8569 73.7199 22.3179C63.8148 33.0085 53.8986 43.699 44.0045 54.4062C42.8363 55.6702 41.5905 56.6557 39.5087 56.6668Z" fill="#021731"/>
</g>
<defs>
<clipPath id="clip0_358_1000">
<rect width="85" height="85" fill="white"/>
</clipPath>
</defs>
</svg>
