<?xml version="1.0" encoding="UTF-8"?>
<svg id="Capa_1" data-name="Capa 1" xmlns="http://www.w3.org/2000/svg" viewBox="0 0 1048.34 509.42">
  <defs>
    <style>
      .cls-1 {
        fill: #5fb141;
        stroke-width: 0px;
      }
    </style>
  </defs>
  <path class="cls-1" d="m770.94,502.74c-5.48,7.46-12.09,5.7-17.94,5.69-44.97-.04-89.93-.43-134.9-.32-8.36.02-13.95-2.21-18.7-9.67-26.44-41.51-52.74-83.14-80.41-123.83-25.63-37.68-47.91-77.56-74.32-114.6-25.76-36.12-48.17-74.32-72.53-111.28-21.81-33.09-45.09-65.31-65.13-99.46-9-15.35-21.59-28.43-28.24-45.06,4.24-4.15,9.35-4.03,14.51-4.03,46.41.01,92.81.15,139.22-.18,8.13-.06,12.89,3.03,17.19,9.65,20.07,30.94,40.76,61.44,60.06,92.93,24.27,39.6,51.16,77.59,76.14,116.77,47.43,74.41,97.96,146.79,144.2,221.97,12.95,21.06,27.38,41.22,40.88,61.42Z"/>
  <path class="cls-1" d="m1047.67,506.39c-18.1,5.13-36.98,1.46-55.59,1.81-29.79.56-59.64-1.62-89.4,1.05-12.16,1.09-20.56-3.17-27.14-13.39-42.23-65.59-84.75-131-127.11-196.5-36.16-55.92-72.56-111.69-108.25-167.9-18.47-29.1-10.51-60.06,7.72-82.89,17.62-22.06,50.95-27.68,77.72-18.66,27.21,9.17,38.64,32.34,51.61,53.46,18.43,30,38.47,58.9,57.19,88.68,27.45,43.67,55.86,86.75,83.7,130.16,19.57,30.51,40.63,60.37,60.3,90.82,22.31,34.54,46.85,67.71,67.06,103.63,1.62,2.89,4.03,5.37,2.17,9.73Z"/>
  <path class="cls-1" d="m0,3.77C6.11-1.02,11.55.25,16.58.24c45.95-.15,91.89.02,137.84-.21,6.72-.03,10.73,1.5,14.72,7.75,37.48,58.6,75.45,116.9,113.41,175.19,18.96,29.11,38.78,57.67,57.17,87.12,21.86,35.02,46.45,68.25,68.2,103.24,14.71,23.66,15.73,65.45-13.15,90.7-24.06,21.03-60.51,24.52-88,5.17-16.1-11.33-24.85-29.4-35.46-45.41-33.89-51.16-67.21-102.7-100.66-154.16C126.37,201.52,81.95,133.5,38.13,65.1,25.27,45.01,10.19,26.19,0,3.77Z"/>
</svg>